<svg width="20" height="14" viewBox="0 0 20 14" fill="none" xmlns="http://www.w3.org/2000/svg">
<g clip-path="url(#clip0_26_459)">
<path fill-rule="evenodd" clip-rule="evenodd" d="M0 0H28.5V1.07917H0V0ZM0 2.15542H28.5V3.23458H0V2.15542ZM0 4.30792H28.5V5.38708H0V4.30792ZM0 6.46042H28.5V7.53958H0V6.46042ZM0 8.61875H28.5V9.69208H0V8.61875ZM0 10.7683H28.5V11.8475H0V10.7683ZM0 12.9208H28.5V14H0V12.9208Z" fill="#BD3D44"/>
<path fill-rule="evenodd" clip-rule="evenodd" d="M0 1.07916H28.5V2.15541H0V1.07916ZM0 3.23166H28.5V4.30791H0V3.23166ZM0 5.38416H28.5V6.46333H0V5.38416ZM0 7.53958H28.5V8.61875H0V7.53958ZM0 9.69208H28.5V10.7712H0V9.69208ZM0 11.8446H28.5V12.9237H0V11.8446Z" fill="white"/>
<path fill-rule="evenodd" clip-rule="evenodd" d="M0 0H11.4V7.53958H0V0Z" fill="#192F5D"/>
<path fill-rule="evenodd" clip-rule="evenodd" d="M0.950024 0.320831L1.05627 0.621248H1.38752L1.11877 0.804998L1.2219 1.10541L0.950024 0.918748L0.681274 1.1025L0.781274 0.804998L0.509399 0.621248H0.850024L0.950024 0.320831ZM2.85002 0.320831L2.95315 0.621248H3.29065L3.01877 0.804998L3.11877 1.10541L2.85002 0.918748L2.57815 1.1025L2.68127 0.804998L2.41252 0.621248H2.74377L2.85002 0.320831ZM4.75002 0.320831L4.85315 0.621248H5.18752L4.91877 0.804998L5.0219 1.10541L4.75002 0.918748L4.47815 1.1025L4.58127 0.804998L4.3094 0.621248H4.6469L4.75002 0.320831ZM6.65002 0.320831L6.75315 0.621248H7.09065L6.81877 0.804998L6.9219 1.10541L6.65002 0.918748L6.37815 1.1025L6.4844 0.804998L6.2094 0.621248H6.54377L6.65002 0.320831ZM8.55002 0.320831L8.65315 0.621248H8.98752L8.71877 0.804998L8.8219 1.10541L8.55002 0.918748L8.27815 1.1025L8.38127 0.804998L8.11252 0.621248H8.4469L8.55002 0.320831ZM10.45 0.320831L10.5532 0.621248H10.8906L10.6157 0.804998L10.7219 1.10541L10.45 0.918748L10.1782 1.1025L10.2844 0.804998L10.0094 0.621248H10.3469L10.45 0.320831ZM1.90002 1.07916L2.00315 1.37666H2.34377L2.0719 1.5575L2.1719 1.85791L1.90627 1.67416L1.6344 1.85791L1.73127 1.5575L1.46877 1.37666H1.80315L1.90002 1.07916ZM3.80002 1.07916L3.90627 1.37666H4.24065L3.96565 1.5575L4.0719 1.85791L3.80002 1.67416L3.52815 1.85791L3.63127 1.5575L3.3594 1.37666H3.6969L3.80002 1.07916ZM5.70002 1.07916L5.80315 1.37666H6.14065L5.86877 1.5575L5.9719 1.85791L5.70002 1.67416L5.42815 1.85791L5.53127 1.5575L5.26252 1.37666H5.59377L5.70002 1.07916ZM7.60002 1.07916L7.70627 1.37666H8.04065L7.76565 1.5575L7.8719 1.85791L7.60002 1.67416L7.33127 1.85791L7.43127 1.5575L7.1594 1.37666H7.50002L7.60002 1.07916ZM9.50002 1.07916L9.60315 1.37666H9.94065L9.66877 1.5575L9.7719 1.85791L9.50002 1.67416L9.22815 1.85791L9.33127 1.5575L9.06252 1.37666H9.3969L9.50002 1.07916ZM0.950024 1.82583L1.05627 2.12916H1.38752L1.11877 2.31291L1.2219 2.61041L0.950024 2.42666L0.681274 2.61041L0.781274 2.31291L0.509399 2.12916H0.850024L0.950024 1.82583ZM2.85002 1.82583L2.95315 2.12916H3.29065L3.01877 2.31291L3.11877 2.61041L2.85002 2.42666L2.57815 2.61041L2.68127 2.31L2.41252 2.12625H2.74377L2.85002 1.82583ZM4.75002 1.82583L4.85315 2.12625H5.18752L4.91877 2.31L5.0219 2.6075L4.75002 2.42375L4.47815 2.6075L4.58127 2.30708L4.3094 2.12333H4.6469L4.75002 1.82583ZM6.65002 1.82583L6.75315 2.12625H7.09065L6.81877 2.31L6.9219 2.6075L6.65002 2.42375L6.37815 2.6075L6.4844 2.30708L6.2094 2.12333H6.54377L6.65002 1.82583ZM8.55002 1.82583L8.65315 2.12625H8.98752L8.71877 2.31L8.8219 2.6075L8.55002 2.42375L8.27815 2.6075L8.38127 2.30708L8.11252 2.12333H8.4469L8.55002 1.82583ZM10.45 1.82583L10.5532 2.12625H10.8906L10.6157 2.31L10.7219 2.6075L10.45 2.42375L10.1782 2.6075L10.2844 2.30708L10.0094 2.12333H10.3469L10.45 1.82583ZM1.90002 2.58416L2.00315 2.88166H2.34377L2.0719 3.06541L2.17502 3.36583L1.90315 3.17916L1.63127 3.36291L1.7344 3.06541L1.46565 2.88166H1.80002L1.90002 2.58416ZM3.80002 2.58416L3.90627 2.88166H4.24065L3.96565 3.06541L4.0719 3.36583L3.80002 3.17916L3.52815 3.36291L3.63127 3.06541L3.3594 2.88166H3.6969L3.80002 2.58416ZM5.70002 2.58416L5.80315 2.88166H6.14065L5.86877 3.06541L5.9719 3.36583L5.70002 3.17916L5.42815 3.36291L5.53127 3.06541L5.26252 2.88166H5.59377L5.70002 2.58416ZM7.60002 2.58416L7.70627 2.88166H8.04065L7.76877 3.06541L7.8719 3.36583L7.60002 3.17916L7.33127 3.36291L7.43127 3.06541L7.1594 2.88166H7.50002L7.60002 2.58416ZM9.50002 2.58416L9.60315 2.88166H9.94065L9.66877 3.06541L9.7719 3.36583L9.50002 3.17916L9.22815 3.36291L9.33127 3.06541L9.06252 2.88166H9.3969L9.50002 2.58416ZM0.950024 3.33958L1.05627 3.63708H1.38752L1.11877 3.82083L1.2219 4.12125L0.950024 3.93458L0.681274 4.11833L0.781274 3.82083L0.509399 3.63708H0.850024L0.950024 3.33958ZM2.85002 3.33958L2.95315 3.63708H3.29065L3.01877 3.82083L3.11877 4.11833L2.85002 3.93458L2.57815 4.11833L2.68127 3.82083L2.41252 3.63708H2.74377L2.85002 3.33958ZM4.75002 3.33958L4.85315 3.63708H5.18752L4.91877 3.82083L5.0219 4.12125L4.75002 3.93458L4.47815 4.11833L4.58127 3.82083L4.3094 3.63708H4.6469L4.75002 3.33958ZM6.65002 3.33958L6.75315 3.63708H7.09065L6.81877 3.82083L6.9219 4.12125L6.65002 3.93458L6.37815 4.11833L6.4844 3.82083L6.2094 3.63708H6.54377L6.65002 3.33958ZM8.55002 3.33958L8.65315 3.63708H8.98752L8.71877 3.82083L8.8219 4.12125L8.55002 3.93458L8.27815 4.11833L8.38127 3.82083L8.11252 3.63708H8.4469L8.55002 3.33958ZM10.45 3.33958L10.5532 3.63708H10.8906L10.6157 3.82083L10.7219 4.12125L10.45 3.93458L10.1782 4.11833L10.2813 3.82083L10.0063 3.63708H10.3438L10.45 3.33958ZM1.90002 4.09208L2.00315 4.3925H2.34377L2.0719 4.57333L2.17502 4.87375L1.90315 4.68708L1.63127 4.87375L1.7344 4.57333L1.46565 4.38958H1.80002L1.90002 4.09208ZM3.80002 4.09208L3.90627 4.3925H4.24065L3.96565 4.57333L4.0719 4.87375L3.80002 4.68708L3.52815 4.87375L3.63127 4.57333L3.3594 4.38958H3.6969L3.80002 4.09208ZM5.70002 4.09208L5.80315 4.3925H6.14065L5.86877 4.57333L5.9719 4.87375L5.70002 4.68708L5.42815 4.87375L5.53127 4.57333L5.26252 4.38958H5.59377L5.70002 4.09208ZM7.60002 4.09208L7.70627 4.3925H8.04065L7.76877 4.57333L7.8719 4.87375L7.60002 4.68708L7.33127 4.87375L7.43127 4.57333L7.1594 4.38958H7.50002L7.60002 4.09208ZM9.50002 4.09208L9.60315 4.3925H9.94065L9.66877 4.57333L9.7719 4.87375L9.50002 4.68708L9.22815 4.87375L9.33127 4.57333L9.06252 4.38958H9.3969L9.50002 4.09208ZM0.950024 4.84458L1.05627 5.145H1.38752L1.11877 5.32875L1.2219 5.62333L0.950024 5.4425L0.681274 5.62333L0.781274 5.32583L0.509399 5.14208H0.850024L0.950024 4.84458ZM2.85002 4.84458L2.95315 5.145H3.29065L3.01877 5.32875L3.1219 5.62333L2.85002 5.4425L2.57815 5.62333L2.6844 5.32583L2.41252 5.14208H2.74377L2.85002 4.84458ZM4.75002 4.84458L4.85315 5.145H5.18752L4.91877 5.32875L5.0219 5.62333L4.75002 5.4425L4.47815 5.62333L4.58127 5.32583L4.3094 5.14208H4.6469L4.75002 4.84458ZM6.65002 4.84458L6.75315 5.145H7.09065L6.81877 5.32875L6.9219 5.62333L6.65002 5.4425L6.37815 5.62333L6.4844 5.32583L6.2094 5.14208H6.54377L6.65002 4.84458ZM8.55002 4.84458L8.65315 5.145H8.98752L8.71877 5.32875L8.8219 5.62333L8.55002 5.4425L8.27815 5.62333L8.38127 5.32583L8.11252 5.14208H8.4469L8.55002 4.84458ZM10.45 4.84458L10.5532 5.145H10.8906L10.6157 5.32875L10.7219 5.62333L10.45 5.4425L10.1782 5.62333L10.2844 5.32583L10.0094 5.14208H10.3469L10.45 4.84458ZM1.90002 5.6L2.00315 5.8975H2.34377L2.0719 6.08125L2.17502 6.38166L1.90315 6.195L1.63127 6.37875L1.7344 6.08125L1.46565 5.8975H1.80002L1.90002 5.6ZM3.80002 5.6L3.90627 5.8975H4.24065L3.96565 6.08125L4.0719 6.38166L3.80002 6.195L3.52815 6.37875L3.63127 6.08125L3.3594 5.8975H3.6969L3.80002 5.6ZM5.70002 5.6L5.80315 5.8975H6.14065L5.86877 6.08125L5.9719 6.38166L5.70002 6.195L5.42815 6.37875L5.53127 6.08125L5.26252 5.8975H5.59377L5.70002 5.6ZM7.60002 5.6L7.70627 5.8975H8.04065L7.76877 6.08125L7.8719 6.38166L7.60002 6.195L7.33127 6.37875L7.43127 6.08125L7.1594 5.8975H7.50002L7.60002 5.6ZM9.50002 5.6L9.60315 5.8975H9.94065L9.66877 6.08125L9.7719 6.38166L9.50002 6.195L9.22815 6.37875L9.33127 6.08125L9.06252 5.8975H9.3969L9.50002 5.6ZM0.950024 6.35541L1.05627 6.65292H1.38752L1.11877 6.83666L1.2219 7.13416L0.950024 6.95041L0.681274 7.13416L0.781274 6.83375L0.509399 6.65H0.850024L0.950024 6.35541ZM2.85002 6.35541L2.95315 6.65292H3.29065L3.01877 6.83666L3.1219 7.13416L2.85002 6.95041L2.57815 7.13416L2.6844 6.83375L2.41252 6.65H2.74377L2.85002 6.35541ZM4.75002 6.35541L4.85315 6.65292H5.18752L4.92502 6.83666L5.02815 7.13416L4.75627 6.95041L4.4844 7.13416L4.58752 6.83375L4.31565 6.65H4.65315L4.75002 6.35541ZM6.65002 6.35541L6.75315 6.65292H7.09065L6.81877 6.83666L6.9219 7.13416L6.65002 6.95041L6.37815 7.13416L6.4844 6.83375L6.2094 6.65H6.54377L6.65002 6.35541ZM8.55002 6.35541L8.65315 6.65292H8.98752L8.71877 6.83666L8.8219 7.13416L8.55002 6.95041L8.27815 7.13416L8.38127 6.83375L8.11252 6.65H8.4469L8.55002 6.35541ZM10.45 6.35541L10.5532 6.65292H10.8906L10.6157 6.83666L10.7219 7.13416L10.45 6.95041L10.1782 7.13416L10.2844 6.83375L10.0094 6.65H10.3469L10.45 6.35541Z" fill="white"/>
</g>
<defs>
<clipPath id="clip0_26_459">
<rect width="20" height="14" fill="white"/>
</clipPath>
</defs>
</svg>
